<svg xmlns="http://www.w3.org/2000/svg" viewBox="0 0 512 512" role="img" aria-label="casefiles.nexus favicon">
  <defs>
    <linearGradient id="folder" x1="96" y1="120" x2="416" y2="420" gradientUnits="userSpaceOnUse">
      <stop offset="0" stop-color="#E7C987"/>
      <stop offset="1" stop-color="#B88F4D"/>
    </linearGradient>
    <linearGradient id="tab" x1="112" y1="100" x2="278" y2="206" gradientUnits="userSpaceOnUse">
      <stop offset="0" stop-color="#F0D79A"/>
      <stop offset="1" stop-color="#C99F5D"/>
    </linearGradient>
    <filter id="shadow" x="-20%" y="-20%" width="140%" height="150%">
      <feDropShadow dx="0" dy="18" stdDeviation="16" flood-color="#3B2C1D" flood-opacity="0.28"/>
    </filter>
  </defs>

  <rect width="512" height="512" rx="112" fill="#2B241B"/>

  <g filter="url(#shadow)">
    <path d="M86 155c0-22 18-40 40-40h103c15 0 29 7 38 19l24 31h95c22 0 40 18 40 40v21H86v-71z" fill="url(#tab)"/>
    <path d="M70 212c0-24 19-43 43-43h286c24 0 43 19 43 43v172c0 24-19 43-43 43H113c-24 0-43-19-43-43V212z" fill="url(#folder)"/>
    <path d="M70 248h372v136c0 24-19 43-43 43H113c-24 0-43-19-43-43V248z" fill="#D2AC67" opacity="0.55"/>
    <path d="M96 224h320" stroke="#8B6634" stroke-width="18" stroke-linecap="round" opacity="0.45"/>
  </g>

  <g transform="rotate(-18 333 326)">
    <circle cx="316" cy="293" r="78" fill="none" stroke="#F8F1E3" stroke-width="34"/>
    <circle cx="316" cy="293" r="50" fill="#2B241B" opacity="0.08"/>
    <path d="M371 348l80 80" stroke="#F8F1E3" stroke-width="42" stroke-linecap="round"/>
    <path d="M296 253c16-10 38-11 56 0" stroke="#FFFFFF" stroke-width="13" stroke-linecap="round" opacity="0.65"/>
  </g>
</svg>
